<?xml version="1.0" encoding="UTF-8"?>
<svg xmlns="http://www.w3.org/2000/svg" width="1153" height="1153" viewBox="0 0 1153 1153" shape-rendering="crispEdges">
<rect width="1153" height="1153" fill="#FFFF00"/>
<path fill="#0000FF" d="M73 1h8v8h-8zM82 10h8v8h-8zM91 19h8v8h-8zM100 28h8v8h-8zM109 37h8v8h-8zM118 46h8v8h-8zM127 55h8v8h-8zM136 64h8v8h-8zM433 73h8v8h-8zM442 82h8v8h-8zM451 91h8v8h-8zM460 100h8v8h-8zM469 109h8v8h-8zM478 118h8v8h-8zM487 127h8v8h-8zM496 136h8v8h-8zM793 145h8v8h-8zM802 154h8v8h-8zM811 163h8v8h-8zM820 172h8v8h-8zM829 181h8v8h-8zM838 190h8v8h-8zM847 199h8v8h-8zM856 208h8v8h-8zM865 217h8v8h-8zM874 226h8v8h-8zM883 235h8v8h-8zM892 244h8v8h-8zM901 253h8v8h-8zM910 262h8v8h-8zM919 271h8v8h-8zM928 280h8v8h-8zM361 289h8v8h-8zM370 298h8v8h-8zM379 307h8v8h-8zM388 316h8v8h-8zM397 325h8v8h-8zM406 334h8v8h-8zM415 343h8v8h-8zM424 352h8v8h-8zM721 361h8v8h-8zM730 370h8v8h-8zM739 379h8v8h-8zM748 388h8v8h-8zM757 397h8v8h-8zM766 406h8v8h-8zM775 415h8v8h-8zM784 424h8v8h-8zM1081 433h8v8h-8zM1090 442h8v8h-8zM1099 451h8v8h-8zM1108 460h8v8h-8zM1117 469h8v8h-8zM1126 478h8v8h-8zM1135 487h8v8h-8zM1144 496h8v8h-8zM1 505h8v8h-8zM10 514h8v8h-8zM19 523h8v8h-8zM28 532h8v8h-8zM37 541h8v8h-8zM46 550h8v8h-8zM55 559h8v8h-8zM64 568h8v8h-8zM649 577h8v8h-8zM658 586h8v8h-8zM667 595h8v8h-8zM676 604h8v8h-8zM685 613h8v8h-8zM694 622h8v8h-8zM703 631h8v8h-8zM712 640h8v8h-8zM1009 649h8v8h-8zM1018 658h8v8h-8zM1027 667h8v8h-8zM1036 676h8v8h-8zM1045 685h8v8h-8zM1054 694h8v8h-8zM1063 703h8v8h-8zM1072 712h8v8h-8zM217 721h8v8h-8zM226 730h8v8h-8zM235 739h8v8h-8zM244 748h8v8h-8zM253 757h8v8h-8zM262 766h8v8h-8zM271 775h8v8h-8zM280 784h8v8h-8zM289 793h8v8h-8zM298 802h8v8h-8zM307 811h8v8h-8zM316 820h8v8h-8zM325 829h8v8h-8zM334 838h8v8h-8zM343 847h8v8h-8zM352 856h8v8h-8zM937 865h8v8h-8zM946 874h8v8h-8zM955 883h8v8h-8zM964 892h8v8h-8zM973 901h8v8h-8zM982 910h8v8h-8zM991 919h8v8h-8zM1000 928h8v8h-8zM145 937h8v8h-8zM154 946h8v8h-8zM163 955h8v8h-8zM172 964h8v8h-8zM181 973h8v8h-8zM190 982h8v8h-8zM199 991h8v8h-8zM208 1000h8v8h-8zM505 1009h8v8h-8zM514 1018h8v8h-8zM523 1027h8v8h-8zM532 1036h8v8h-8zM541 1045h8v8h-8zM550 1054h8v8h-8zM559 1063h8v8h-8zM568 1072h8v8h-8zM577 1081h8v8h-8zM586 1090h8v8h-8zM595 1099h8v8h-8zM604 1108h8v8h-8zM613 1117h8v8h-8zM622 1126h8v8h-8zM631 1135h8v8h-8zM640 1144h8v8h-8z"/>
</svg>
