<?xml version="1.0" encoding="UTF-8"?>
<svg xmlns="http://www.w3.org/2000/svg" width="145" height="145" viewBox="0 0 145 145" shape-rendering="crispEdges">
<rect width="145" height="145" fill="#FFFF00"/>
<path fill="#0000FF" d="M1 1h8v8h-8zM55 1h8v8h-8zM73 1h8v8h-8zM82 1h8v8h-8zM109 1h8v8h-8zM118 1h8v8h-8zM127 1h8v8h-8zM10 10h8v8h-8zM55 10h8v8h-8zM64 10h8v8h-8zM91 10h8v8h-8zM136 10h8v8h-8zM19 19h8v8h-8zM37 19h8v8h-8zM64 19h8v8h-8zM100 19h8v8h-8zM109 19h8v8h-8zM28 28h8v8h-8zM46 28h8v8h-8zM73 28h8v8h-8zM109 28h8v8h-8zM118 28h8v8h-8zM19 37h8v8h-8zM37 37h8v8h-8zM73 37h8v8h-8zM82 37h8v8h-8zM91 37h8v8h-8zM109 37h8v8h-8zM118 37h8v8h-8zM19 46h8v8h-8zM28 46h8v8h-8zM46 46h8v8h-8zM100 46h8v8h-8zM127 46h8v8h-8zM1 55h8v8h-8zM28 55h8v8h-8zM55 55h8v8h-8zM73 55h8v8h-8zM136 55h8v8h-8zM10 64h8v8h-8zM64 64h8v8h-8zM73 64h8v8h-8zM82 64h8v8h-8zM109 64h8v8h-8zM1 73h8v8h-8zM10 73h8v8h-8zM37 73h8v8h-8zM46 73h8v8h-8zM55 73h8v8h-8zM73 73h8v8h-8zM127 73h8v8h-8zM19 82h8v8h-8zM64 82h8v8h-8zM82 82h8v8h-8zM127 82h8v8h-8zM136 82h8v8h-8zM28 91h8v8h-8zM37 91h8v8h-8zM91 91h8v8h-8zM109 91h8v8h-8zM136 91h8v8h-8zM1 100h8v8h-8zM37 100h8v8h-8zM46 100h8v8h-8zM100 100h8v8h-8zM118 100h8v8h-8zM1 109h8v8h-8zM10 109h8v8h-8zM19 109h8v8h-8zM37 109h8v8h-8zM46 109h8v8h-8zM91 109h8v8h-8zM109 109h8v8h-8zM28 118h8v8h-8zM55 118h8v8h-8zM91 118h8v8h-8zM100 118h8v8h-8zM118 118h8v8h-8zM1 127h8v8h-8zM64 127h8v8h-8zM73 127h8v8h-8zM100 127h8v8h-8zM127 127h8v8h-8zM1 136h8v8h-8zM10 136h8v8h-8zM37 136h8v8h-8zM82 136h8v8h-8zM136 136h8v8h-8z"/>
</svg>
