<?xml version="1.0" encoding="UTF-8"?>
<svg xmlns="http://www.w3.org/2000/svg" width="289" height="289" viewBox="0 0 289 289" shape-rendering="crispEdges">
<rect width="289" height="289" fill="#FFFF00"/>
<path fill="#0000FF" d="M1 1h8v8h-8zM73 1h8v8h-8zM82 1h8v8h-8zM91 1h8v8h-8zM145 1h8v8h-8zM163 1h8v8h-8zM217 1h8v8h-8zM235 1h8v8h-8zM10 10h8v8h-8zM73 10h8v8h-8zM82 10h8v8h-8zM91 10h8v8h-8zM100 10h8v8h-8zM145 10h8v8h-8zM154 10h8v8h-8zM172 10h8v8h-8zM217 10h8v8h-8zM226 10h8v8h-8zM244 10h8v8h-8zM19 19h8v8h-8zM73 19h8v8h-8zM82 19h8v8h-8zM91 19h8v8h-8zM100 19h8v8h-8zM109 19h8v8h-8zM154 19h8v8h-8zM163 19h8v8h-8zM181 19h8v8h-8zM226 19h8v8h-8zM235 19h8v8h-8zM253 19h8v8h-8zM28 28h8v8h-8zM73 28h8v8h-8zM100 28h8v8h-8zM109 28h8v8h-8zM118 28h8v8h-8zM145 28h8v8h-8zM172 28h8v8h-8zM190 28h8v8h-8zM217 28h8v8h-8zM244 28h8v8h-8zM262 28h8v8h-8zM37 37h8v8h-8zM82 37h8v8h-8zM109 37h8v8h-8zM118 37h8v8h-8zM127 37h8v8h-8zM145 37h8v8h-8zM154 37h8v8h-8zM181 37h8v8h-8zM199 37h8v8h-8zM217 37h8v8h-8zM226 37h8v8h-8zM253 37h8v8h-8zM271 37h8v8h-8zM46 46h8v8h-8zM73 46h8v8h-8zM82 46h8v8h-8zM118 46h8v8h-8zM127 46h8v8h-8zM136 46h8v8h-8zM154 46h8v8h-8zM190 46h8v8h-8zM208 46h8v8h-8zM226 46h8v8h-8zM262 46h8v8h-8zM280 46h8v8h-8zM55 55h8v8h-8zM73 55h8v8h-8zM127 55h8v8h-8zM136 55h8v8h-8zM145 55h8v8h-8zM199 55h8v8h-8zM217 55h8v8h-8zM271 55h8v8h-8zM64 64h8v8h-8zM73 64h8v8h-8zM82 64h8v8h-8zM136 64h8v8h-8zM154 64h8v8h-8zM208 64h8v8h-8zM226 64h8v8h-8zM280 64h8v8h-8zM1 73h8v8h-8zM19 73h8v8h-8zM73 73h8v8h-8zM82 73h8v8h-8zM91 73h8v8h-8zM145 73h8v8h-8zM154 73h8v8h-8zM163 73h8v8h-8zM217 73h8v8h-8zM1 82h8v8h-8zM10 82h8v8h-8zM28 82h8v8h-8zM73 82h8v8h-8zM82 82h8v8h-8zM91 82h8v8h-8zM100 82h8v8h-8zM145 82h8v8h-8zM154 82h8v8h-8zM163 82h8v8h-8zM172 82h8v8h-8zM226 82h8v8h-8zM10 91h8v8h-8zM19 91h8v8h-8zM37 91h8v8h-8zM73 91h8v8h-8zM82 91h8v8h-8zM91 91h8v8h-8zM100 91h8v8h-8zM109 91h8v8h-8zM145 91h8v8h-8zM154 91h8v8h-8zM163 91h8v8h-8zM172 91h8v8h-8zM181 91h8v8h-8zM235 91h8v8h-8zM1 100h8v8h-8zM28 100h8v8h-8zM46 100h8v8h-8zM73 100h8v8h-8zM100 100h8v8h-8zM109 100h8v8h-8zM118 100h8v8h-8zM145 100h8v8h-8zM172 100h8v8h-8zM181 100h8v8h-8zM190 100h8v8h-8zM244 100h8v8h-8zM1 109h8v8h-8zM10 109h8v8h-8zM37 109h8v8h-8zM55 109h8v8h-8zM82 109h8v8h-8zM109 109h8v8h-8zM118 109h8v8h-8zM127 109h8v8h-8zM154 109h8v8h-8zM181 109h8v8h-8zM190 109h8v8h-8zM199 109h8v8h-8zM253 109h8v8h-8zM10 118h8v8h-8zM46 118h8v8h-8zM64 118h8v8h-8zM73 118h8v8h-8zM82 118h8v8h-8zM118 118h8v8h-8zM127 118h8v8h-8zM136 118h8v8h-8zM145 118h8v8h-8zM154 118h8v8h-8zM190 118h8v8h-8zM199 118h8v8h-8zM208 118h8v8h-8zM262 118h8v8h-8zM1 127h8v8h-8zM55 127h8v8h-8zM73 127h8v8h-8zM127 127h8v8h-8zM136 127h8v8h-8zM145 127h8v8h-8zM199 127h8v8h-8zM208 127h8v8h-8zM271 127h8v8h-8zM10 136h8v8h-8zM64 136h8v8h-8zM73 136h8v8h-8zM82 136h8v8h-8zM136 136h8v8h-8zM145 136h8v8h-8zM154 136h8v8h-8zM208 136h8v8h-8zM280 136h8v8h-8zM1 145h8v8h-8zM10 145h8v8h-8zM19 145h8v8h-8zM73 145h8v8h-8zM91 145h8v8h-8zM145 145h8v8h-8zM217 145h8v8h-8zM226 145h8v8h-8zM235 145h8v8h-8zM1 154h8v8h-8zM10 154h8v8h-8zM19 154h8v8h-8zM28 154h8v8h-8zM73 154h8v8h-8zM82 154h8v8h-8zM100 154h8v8h-8zM154 154h8v8h-8zM217 154h8v8h-8zM226 154h8v8h-8zM235 154h8v8h-8zM244 154h8v8h-8zM1 163h8v8h-8zM10 163h8v8h-8zM19 163h8v8h-8zM28 163h8v8h-8zM37 163h8v8h-8zM82 163h8v8h-8zM91 163h8v8h-8zM109 163h8v8h-8zM163 163h8v8h-8zM217 163h8v8h-8zM226 163h8v8h-8zM235 163h8v8h-8zM244 163h8v8h-8zM253 163h8v8h-8zM1 172h8v8h-8zM28 172h8v8h-8zM37 172h8v8h-8zM46 172h8v8h-8zM73 172h8v8h-8zM100 172h8v8h-8zM118 172h8v8h-8zM172 172h8v8h-8zM217 172h8v8h-8zM244 172h8v8h-8zM253 172h8v8h-8zM262 172h8v8h-8zM10 181h8v8h-8zM37 181h8v8h-8zM46 181h8v8h-8zM55 181h8v8h-8zM73 181h8v8h-8zM82 181h8v8h-8zM109 181h8v8h-8zM127 181h8v8h-8zM181 181h8v8h-8zM226 181h8v8h-8zM253 181h8v8h-8zM262 181h8v8h-8zM271 181h8v8h-8zM1 190h8v8h-8zM10 190h8v8h-8zM46 190h8v8h-8zM55 190h8v8h-8zM64 190h8v8h-8zM82 190h8v8h-8zM118 190h8v8h-8zM136 190h8v8h-8zM190 190h8v8h-8zM217 190h8v8h-8zM226 190h8v8h-8zM262 190h8v8h-8zM271 190h8v8h-8zM280 190h8v8h-8zM1 199h8v8h-8zM55 199h8v8h-8zM64 199h8v8h-8zM73 199h8v8h-8zM127 199h8v8h-8zM199 199h8v8h-8zM217 199h8v8h-8zM271 199h8v8h-8zM280 199h8v8h-8zM1 208h8v8h-8zM10 208h8v8h-8zM64 208h8v8h-8zM82 208h8v8h-8zM136 208h8v8h-8zM208 208h8v8h-8zM217 208h8v8h-8zM226 208h8v8h-8zM280 208h8v8h-8zM1 217h8v8h-8zM10 217h8v8h-8zM19 217h8v8h-8zM73 217h8v8h-8zM145 217h8v8h-8zM154 217h8v8h-8zM163 217h8v8h-8zM217 217h8v8h-8zM235 217h8v8h-8zM1 226h8v8h-8zM10 226h8v8h-8zM19 226h8v8h-8zM28 226h8v8h-8zM82 226h8v8h-8zM145 226h8v8h-8zM154 226h8v8h-8zM163 226h8v8h-8zM172 226h8v8h-8zM217 226h8v8h-8zM226 226h8v8h-8zM244 226h8v8h-8zM1 235h8v8h-8zM10 235h8v8h-8zM19 235h8v8h-8zM28 235h8v8h-8zM37 235h8v8h-8zM91 235h8v8h-8zM145 235h8v8h-8zM154 235h8v8h-8zM163 235h8v8h-8zM172 235h8v8h-8zM181 235h8v8h-8zM226 235h8v8h-8zM235 235h8v8h-8zM253 235h8v8h-8zM1 244h8v8h-8zM28 244h8v8h-8zM37 244h8v8h-8zM46 244h8v8h-8zM100 244h8v8h-8zM145 244h8v8h-8zM172 244h8v8h-8zM181 244h8v8h-8zM190 244h8v8h-8zM217 244h8v8h-8zM244 244h8v8h-8zM262 244h8v8h-8zM10 253h8v8h-8zM37 253h8v8h-8zM46 253h8v8h-8zM55 253h8v8h-8zM109 253h8v8h-8zM154 253h8v8h-8zM181 253h8v8h-8zM190 253h8v8h-8zM199 253h8v8h-8zM217 253h8v8h-8zM226 253h8v8h-8zM253 253h8v8h-8zM271 253h8v8h-8zM1 262h8v8h-8zM10 262h8v8h-8zM46 262h8v8h-8zM55 262h8v8h-8zM64 262h8v8h-8zM118 262h8v8h-8zM145 262h8v8h-8zM154 262h8v8h-8zM190 262h8v8h-8zM199 262h8v8h-8zM208 262h8v8h-8zM226 262h8v8h-8zM262 262h8v8h-8zM280 262h8v8h-8zM1 271h8v8h-8zM55 271h8v8h-8zM64 271h8v8h-8zM127 271h8v8h-8zM145 271h8v8h-8zM199 271h8v8h-8zM208 271h8v8h-8zM217 271h8v8h-8zM271 271h8v8h-8zM1 280h8v8h-8zM10 280h8v8h-8zM64 280h8v8h-8zM136 280h8v8h-8zM145 280h8v8h-8zM154 280h8v8h-8zM208 280h8v8h-8zM226 280h8v8h-8zM280 280h8v8h-8z"/>
</svg>
